PathFileType	4	(X/Y/Z)	SUBJ36_0_static_RCNL2025.trc
DataRate	CameraRate	NumFrames	NumMarkers	Units	OrigDataRate	OrigDataStartFrame	OrigNumFrames
100	100	12	25	mm	100	54	143
Frame#	Time	R_Shoulder			L_Shoulder			C7			J_Notch			R_Elbow			L_Elbow			R_Wrist			L_Wrist			R_Asis			L_Asis			Sacral			Thoracic			Sternum			R_Thigh_Lateral			R_Knee_Lateral			R_Shank_Lateral			R_Ankle_Lateral			R_Heel			R_Toe			L_Thigh_Lateral			L_Knee_Lateral			L_Shank_Lateral			L_Ankle_Lateral			L_Heel			L_Toe		
		X1	Y1	Z1	X2	Y2	Z2	X3	Y3	Z3	X4	Y4	Z4	X5	Y5	Z5	X6	Y6	Z6	X7	Y7	Z7	X8	Y8	Z8	X9	Y9	Z9	X10	Y10	Z10	X11	Y11	Z11	X12	Y12	Z12	X13	Y13	Z13	X14	Y14	Z14	X15	Y15	Z15	X16	Y16	Z16	X17	Y17	Z17	X18	Y18	Z18	X19	Y19	Z19	X20	Y20	Z20	X21	Y21	Z21	X22	Y22	Z22	X23	Y23	Z23	X24	Y24	Z24	X25	Y25	Z25
54	0.53000000	-316.927765	1362.721069	-72.871819	-335.728790	1345.512573	-416.939240	-396.408081	1415.823608	-227.862823	-254.696442	1318.574829	-238.950165	-334.996857	1055.601196	44.825462	-347.658081	1040.540283	-503.796570	-257.422470	830.917999	57.292027	-232.555374	836.654968	-508.166687	-227.606781	925.716187	-114.988419	-216.860535	921.752380	-344.283630	-441.452911	907.581055	-234.098724	-452.583710	1148.603760	-233.247391	-208.064453	1142.025269	-235.665253	-351.110474	512.944702	-63.596996	-356.640411	452.009338	-112.605789	-397.872986	244.375061	-71.198303	-351.426605	99.761108	-119.588776	-456.067291	49.030434	-185.411758	-289.020721	49.774742	-166.432312	-332.203064	528.103882	-426.234436	-346.907379	454.407806	-353.459045	-385.511688	242.654068	-389.182220	-399.994476	75.890884	-311.717590	-442.402496	46.352325	-261.357239	-271.904968	48.423035	-280.893280
55	0.54000000	-316.989319	1362.713013	-72.933891	-335.861420	1345.505493	-416.837219	-396.501007	1415.831421	-227.820343	-254.821350	1318.618652	-239.013062	-335.132782	1055.631348	44.807701	-347.741028	1040.554077	-503.750549	-257.446442	830.999146	57.328995	-232.624626	836.726715	-508.123993	-227.795258	925.763916	-115.009003	-216.867416	921.774292	-344.320282	-441.524536	907.596375	-234.161758	-452.725189	1148.618652	-233.253464	-208.075958	1142.054810	-235.650757	-351.075317	512.973938	-63.610268	-356.694336	452.037567	-112.569275	-397.964661	244.455612	-71.141716	-351.419312	99.755363	-119.594025	-456.031097	49.089497	-185.454819	-289.016876	49.760746	-166.436615	-332.237854	528.022095	-426.239227	-346.977386	454.427643	-353.526276	-385.609009	242.657669	-389.239166	-399.999695	75.888680	-311.748230	-442.403107	46.352180	-261.359344	-271.838928	48.463840	-280.901642
56	0.55000000	-317.175720	1362.764404	-72.846291	-336.010559	1345.566162	-416.890564	-396.550262	1415.964722	-227.763306	-255.008987	1318.620728	-238.989227	-335.213257	1055.679199	44.860786	-347.878479	1040.558228	-503.778046	-257.553268	831.003662	57.304379	-232.739464	836.771912	-508.233002	-227.786957	925.806702	-114.967766	-216.926727	921.811096	-344.480011	-441.596619	907.597900	-234.127090	-452.826538	1148.641724	-233.181488	-208.117920	1142.187012	-235.739380	-351.114044	513.028015	-63.573662	-356.619568	452.143524	-112.597954	-397.985107	244.396835	-71.116058	-351.414368	99.751686	-119.597542	-456.032379	49.097244	-185.456604	-288.996429	49.742153	-166.453217	-332.410065	528.125488	-426.208832	-347.061279	454.409515	-353.480865	-385.729767	242.668472	-389.207611	-399.968384	75.931320	-311.797058	-442.420258	46.361897	-261.344055	-271.947449	48.460335	-280.967712
57	0.56000000	-317.242493	1362.776733	-72.909538	-336.152985	1345.604492	-416.870148	-396.705139	1415.920776	-227.729080	-254.981094	1318.774536	-238.977097	-335.245819	1055.679077	44.888031	-347.970520	1040.593506	-503.810699	-257.600067	831.000092	57.324667	-232.859886	836.813141	-508.231216	-227.886307	925.825195	-115.011742	-217.112564	921.853210	-344.420288	-441.753296	907.557800	-234.122314	-452.978363	1148.599609	-233.176453	-208.192322	1142.212280	-235.662170	-351.190979	512.969482	-63.534782	-356.674927	452.042664	-112.574036	-398.004639	244.467133	-71.142281	-351.413879	99.751335	-119.597893	-456.058990	49.028042	-185.420029	-289.039062	49.797100	-166.410873	-332.558014	528.151733	-426.240021	-347.220520	454.401642	-353.467224	-385.747131	242.661499	-389.135345	-399.968750	75.945435	-311.803528	-442.474396	46.358047	-261.313446	-271.967957	48.454918	-280.994507
58	0.57000000	-317.237061	1362.780884	-72.917221	-336.285706	1345.589966	-416.821289	-396.805115	1415.860840	-227.837219	-255.071152	1318.799316	-239.035980	-335.275452	1055.658569	44.899780	-348.102386	1040.605591	-503.857971	-257.688675	831.039551	57.319894	-232.958099	836.874023	-508.293427	-228.012009	925.795227	-114.919273	-217.140320	921.853027	-344.419312	-441.728851	907.506042	-234.158035	-453.056915	1148.596069	-233.135361	-208.335587	1142.208984	-235.662125	-351.228363	512.910950	-63.642315	-356.651489	452.059814	-112.581451	-398.047882	244.369690	-71.072525	-351.351074	99.713470	-119.660477	-456.056763	49.006771	-185.421692	-289.056213	49.830978	-166.413223	-332.589325	528.107239	-426.299469	-347.188171	454.379425	-353.542511	-385.740509	242.653854	-389.286530	-399.998169	75.868431	-311.816193	-442.421722	46.323280	-261.391052	-271.919647	48.458973	-281.034668
59	0.58000000	-317.388733	1362.749268	-72.818695	-336.339325	1345.623291	-416.828796	-396.953735	1415.814819	-227.845963	-255.160873	1318.806030	-238.967758	-335.439758	1055.733521	44.906738	-348.254089	1040.681396	-503.869202	-257.715103	831.063293	57.268929	-233.128471	836.895660	-508.374207	-228.125397	925.798828	-114.962898	-217.330200	921.856567	-344.314087	-441.886505	907.471130	-234.140732	-453.205566	1148.565430	-233.132050	-208.314545	1142.317749	-235.696655	-351.237823	512.916687	-63.633774	-356.799347	452.107544	-112.593658	-398.044403	244.386429	-71.066170	-351.284454	99.638901	-119.714325	-456.057709	49.022736	-185.418930	-289.037842	49.800514	-166.420532	-332.661285	528.140686	-426.334167	-347.297913	454.406708	-353.601196	-385.741638	242.423737	-389.088043	-400.012573	75.859970	-311.783783	-442.458130	46.321201	-261.365417	-271.964325	48.442074	-280.996704
60	0.59000000	-317.535339	1362.799805	-72.789757	-336.440918	1345.661377	-416.781952	-397.052917	1415.838257	-227.776321	-255.241119	1318.921265	-239.002579	-335.447266	1055.635498	44.876572	-348.421967	1040.695557	-503.919739	-257.765030	831.097290	57.237679	-233.221474	836.938232	-508.484650	-228.214813	925.821655	-115.091019	-217.449585	921.877808	-344.433838	-442.038422	907.498901	-234.162735	-453.355652	1148.586670	-233.166092	-208.374512	1142.380249	-235.765350	-351.278168	512.943237	-63.606598	-356.846008	452.003876	-112.611237	-397.941589	244.277267	-71.305702	-351.371521	99.718430	-119.629860	-456.061768	49.041641	-185.413544	-289.042297	49.807262	-166.409912	-332.766174	528.145630	-426.365265	-347.312775	454.406677	-353.604492	-385.845337	242.669632	-389.249908	-400.015228	75.867279	-311.796112	-442.467041	46.293934	-261.353302	-271.954803	48.472240	-281.005737
61	0.60000000	-317.516296	1362.842407	-72.857491	-336.538177	1345.657593	-416.707428	-397.119324	1415.847534	-227.835144	-255.329315	1318.873413	-238.854568	-335.542328	1055.739746	44.838566	-348.405334	1040.792847	-503.951935	-257.844559	831.056702	57.277605	-233.298637	836.975708	-508.562271	-228.293579	925.863037	-115.085403	-217.469101	921.863525	-344.419495	-442.118652	907.526306	-234.117203	-453.373383	1148.624023	-233.128174	-208.388367	1142.386230	-235.770599	-351.370972	512.963196	-63.645939	-356.869202	452.004944	-112.696846	-398.077026	244.443100	-71.073723	-351.322845	99.667084	-119.683960	-456.062805	49.042973	-185.412949	-289.035797	49.798431	-166.420837	-332.855743	528.157410	-426.371155	-347.526794	454.476288	-353.591827	-385.958923	242.651413	-389.256104	-400.031464	75.764900	-311.915985	-442.434479	46.167397	-261.388916	-271.970734	48.465366	-281.003601
62	0.61000000	-317.617950	1362.856201	-72.866882	-336.670929	1345.664185	-416.694214	-397.299286	1415.908081	-227.811325	-255.535233	1318.861328	-238.819153	-335.588165	1055.744019	44.880901	-348.591522	1040.819946	-504.019379	-257.894821	831.043427	57.191302	-233.430031	837.014893	-508.602219	-228.392960	925.862183	-115.088539	-217.641266	921.887268	-344.346497	-442.214874	907.473938	-234.136414	-453.511261	1148.632324	-233.161835	-208.474594	1142.389893	-235.678131	-351.407410	512.979553	-63.632820	-356.946228	452.061401	-112.627441	-398.071564	244.444107	-71.251007	-351.316406	99.686363	-119.687500	-456.130676	49.061451	-185.377579	-289.021301	49.769238	-166.409973	-333.010101	528.157715	-426.395905	-347.566772	454.401398	-353.705963	-385.940186	242.473114	-389.177704	-400.004120	75.857018	-311.811646	-442.471832	46.318783	-261.359741	-271.989532	48.561245	-281.001465
63	0.62000000	-317.686707	1362.862915	-72.855743	-336.763062	1345.719849	-416.720947	-397.323578	1415.895264	-227.819290	-255.617432	1318.859497	-239.012115	-335.571228	1055.758789	44.851997	-348.724091	1040.897827	-504.088989	-258.037643	831.027649	57.159749	-233.506927	837.092438	-508.704605	-228.478485	925.883423	-115.065269	-217.796082	921.879395	-344.388214	-442.354187	907.495239	-234.166763	-453.685699	1148.687134	-233.157104	-208.571365	1142.436646	-235.767319	-351.422607	512.956787	-63.628773	-356.940979	452.088531	-112.625084	-398.035278	244.315811	-71.323738	-351.386749	99.726021	-119.611000	-456.069489	49.031521	-185.412949	-289.042816	49.798679	-166.407089	-333.230713	528.250793	-426.379730	-347.633392	454.397003	-353.694031	-386.012085	242.474213	-389.155518	-400.319794	75.972687	-311.888733	-442.710785	46.465080	-261.431061	-271.955170	48.534084	-280.974182
64	0.63000000	-317.757629	1362.867065	-72.892815	-336.803131	1345.737671	-416.732697	-397.439545	1415.902100	-227.840668	-255.576920	1318.948853	-239.020279	-335.725250	1055.704956	44.853386	-348.800659	1040.905151	-504.176636	-258.124878	831.043640	57.132845	-233.598000	837.074677	-508.810379	-228.566406	925.859070	-115.118690	-217.894501	921.885864	-344.567383	-442.499664	907.523865	-234.193756	-453.759186	1148.701172	-233.222336	-208.593140	1142.450806	-235.753708	-351.516693	512.961243	-63.672558	-357.063843	452.095490	-112.676880	-398.141113	244.404877	-71.185349	-351.417877	99.749268	-119.589844	-456.057495	49.038345	-185.415833	-289.034180	49.799755	-166.418884	-333.254486	528.228699	-426.453064	-347.718048	454.404633	-353.753265	-386.107483	242.437912	-389.176758	-400.379211	75.961533	-311.890747	-442.797546	46.407654	-261.458496	-271.962738	48.544033	-280.975769
65	0.64000000	-317.774017	1362.826050	-72.898842	-336.881714	1345.768066	-416.752441	-397.597198	1415.859863	-227.840057	-255.653275	1319.010986	-239.107422	-335.797577	1055.681274	44.765358	-348.833069	1040.949585	-504.293884	-258.210541	831.006378	57.143158	-233.718597	837.162048	-508.919022	-228.687622	925.875061	-115.088791	-217.997147	921.959290	-344.574432	-442.520966	907.450256	-234.168472	-453.903168	1148.654663	-233.229691	-208.655899	1142.577148	-235.816895	-351.554291	513.016357	-63.665745	-357.099304	452.055328	-112.680702	-398.213898	244.380936	-71.153732	-351.421753	99.756897	-119.592049	-456.058655	49.025558	-185.418427	-289.045868	49.817272	-166.414230	-333.383087	528.213928	-426.514648	-347.867462	454.432037	-353.829926	-386.201294	242.377487	-389.174408	-400.321106	75.927567	-311.947296	-442.778503	46.368382	-261.499176	-271.978729	48.562740	-281.061218
